<?xml version="1.0" encoding="us-ascii" standalone="no"?><svg xmlns="http://www.w3.org/2000/svg" xmlns:xlink="http://www.w3.org/1999/xlink" contentStyleType="text/css" height="176px" preserveAspectRatio="none" style="width:910px;height:176px;background:#FFFFFF;" version="1.1" viewBox="0 0 910 176" width="910px" zoomAndPan="magnify"><defs/><g><!--class StateMachineAPI--><g id="elem_StateMachineAPI"><rect codeLine="4" fill="#F1F1F1" height="162.0781" id="StateMachineAPI" rx="2.5" ry="2.5" style="stroke:#181818;stroke-width:0.5;" width="185" x="7" y="7"/><ellipse cx="35.95" cy="23" fill="#ADD1B2" rx="11" ry="11" style="stroke:#181818;stroke-width:1.0;"/><path d="M38.2938,18.6719 C37.3563,18.2344 36.7625,18.0938 35.8875,18.0938 C33.2625,18.0938 31.2625,20.1719 31.2625,22.8906 L31.2625,24.0156 C31.2625,26.5938 33.3719,28.4844 36.2625,28.4844 C37.4813,28.4844 38.6375,28.1875 39.3875,27.6406 C39.9656,27.2344 40.2938,26.7813 40.2938,26.3906 C40.2938,25.9375 39.9031,25.5469 39.4344,25.5469 C39.2156,25.5469 39.0125,25.625 38.825,25.8125 C38.3719,26.2969 38.3719,26.2969 38.1844,26.3906 C37.7625,26.6563 37.075,26.7813 36.3094,26.7813 C34.2625,26.7813 32.9656,25.6875 32.9656,23.9844 L32.9656,22.8906 C32.9656,21.1094 34.2156,19.7969 35.95,19.7969 C36.5281,19.7969 37.1375,19.9531 37.6063,20.2031 C38.0906,20.4844 38.2625,20.7031 38.3563,21.1094 C38.4188,21.5156 38.45,21.6406 38.5906,21.7656 C38.7313,21.9063 38.9656,22.0156 39.1844,22.0156 C39.45,22.0156 39.7156,21.875 39.8875,21.6563 C39.9969,21.5 40.0281,21.3125 40.0281,20.8906 L40.0281,19.4688 C40.0281,19.0313 40.0125,18.9063 39.9188,18.75 C39.7625,18.4844 39.4813,18.3438 39.1844,18.3438 C38.8875,18.3438 38.6844,18.4375 38.4656,18.75 L38.2938,18.6719 Z " fill="#000000"/><text fill="#000000" font-family="sans-serif" font-size="14" lengthAdjust="spacing" textLength="122" x="53.05" y="27.8467">StateMachineAPI</text><line style="stroke:#181818;stroke-width:0.5;" x1="8" x2="191" y1="39" y2="39"/><text fill="#000000" font-family="sans-serif" font-size="14" lengthAdjust="spacing" textLength="105" x="13" y="55.9951">$stateMachine</text><line style="stroke:#181818;stroke-width:0.5;" x1="8" x2="191" y1="63.2969" y2="63.2969"/><text fill="#000000" font-family="sans-serif" font-size="14" lengthAdjust="spacing" textLength="116" x="13" y="80.292">createMachine()</text><text fill="#000000" font-family="sans-serif" font-size="14" lengthAdjust="spacing" textLength="104" x="13" y="96.5889">processInput()</text><text fill="#000000" font-family="sans-serif" font-size="14" lengthAdjust="spacing" textLength="173" x="13" y="112.8857">processInputDebuging()</text><text fill="#000000" font-family="sans-serif" font-size="14" lengthAdjust="spacing" textLength="59" x="13" y="129.1826">output()</text><text fill="#000000" font-family="sans-serif" font-size="14" lengthAdjust="spacing" textLength="103" x="13" y="145.4795">currentState()</text><text fill="#000000" font-family="sans-serif" font-size="14" lengthAdjust="spacing" textLength="68" x="13" y="161.7764">execute()</text></g><!--class StateMachine--><g id="elem_StateMachine"><rect codeLine="13" fill="#F1F1F1" height="113.1875" id="StateMachine" rx="2.5" ry="2.5" style="stroke:#181818;stroke-width:0.5;" width="131" x="294" y="31.5"/><ellipse cx="309" cy="47.5" fill="#ADD1B2" rx="11" ry="11" style="stroke:#181818;stroke-width:1.0;"/><path d="M311.3438,43.1719 C310.4063,42.7344 309.8125,42.5938 308.9375,42.5938 C306.3125,42.5938 304.3125,44.6719 304.3125,47.3906 L304.3125,48.5156 C304.3125,51.0938 306.4219,52.9844 309.3125,52.9844 C310.5313,52.9844 311.6875,52.6875 312.4375,52.1406 C313.0156,51.7344 313.3438,51.2813 313.3438,50.8906 C313.3438,50.4375 312.9531,50.0469 312.4844,50.0469 C312.2656,50.0469 312.0625,50.125 311.875,50.3125 C311.4219,50.7969 311.4219,50.7969 311.2344,50.8906 C310.8125,51.1563 310.125,51.2813 309.3594,51.2813 C307.3125,51.2813 306.0156,50.1875 306.0156,48.4844 L306.0156,47.3906 C306.0156,45.6094 307.2656,44.2969 309,44.2969 C309.5781,44.2969 310.1875,44.4531 310.6563,44.7031 C311.1406,44.9844 311.3125,45.2031 311.4063,45.6094 C311.4688,46.0156 311.5,46.1406 311.6406,46.2656 C311.7813,46.4063 312.0156,46.5156 312.2344,46.5156 C312.5,46.5156 312.7656,46.375 312.9375,46.1563 C313.0469,46 313.0781,45.8125 313.0781,45.3906 L313.0781,43.9688 C313.0781,43.5313 313.0625,43.4063 312.9688,43.25 C312.8125,42.9844 312.5313,42.8438 312.2344,42.8438 C311.9375,42.8438 311.7344,42.9375 311.5156,43.25 L311.3438,43.1719 Z " fill="#000000"/><text fill="#000000" font-family="sans-serif" font-size="14" lengthAdjust="spacing" textLength="99" x="323" y="52.3467">StateMachine</text><line style="stroke:#181818;stroke-width:0.5;" x1="295" x2="424" y1="63.5" y2="63.5"/><text fill="#000000" font-family="sans-serif" font-size="14" lengthAdjust="spacing" textLength="101" x="300" y="80.4951">$currentState</text><text fill="#000000" font-family="sans-serif" font-size="14" lengthAdjust="spacing" textLength="53" x="300" y="96.792">$states</text><line style="stroke:#181818;stroke-width:0.5;" x1="295" x2="424" y1="104.0938" y2="104.0938"/><text fill="#000000" font-family="sans-serif" font-size="14" lengthAdjust="spacing" textLength="104" x="300" y="121.0889">processInput()</text><text fill="#000000" font-family="sans-serif" font-size="14" lengthAdjust="spacing" textLength="57" x="300" y="137.3857">create()</text></g><!--class State--><g id="elem_State"><rect codeLine="19" fill="#F1F1F1" height="162.0781" id="State" rx="2.5" ry="2.5" style="stroke:#181818;stroke-width:0.5;" width="117" x="557" y="7"/><ellipse cx="592.25" cy="23" fill="#ADD1B2" rx="11" ry="11" style="stroke:#181818;stroke-width:1.0;"/><path d="M594.5938,18.6719 C593.6563,18.2344 593.0625,18.0938 592.1875,18.0938 C589.5625,18.0938 587.5625,20.1719 587.5625,22.8906 L587.5625,24.0156 C587.5625,26.5938 589.6719,28.4844 592.5625,28.4844 C593.7813,28.4844 594.9375,28.1875 595.6875,27.6406 C596.2656,27.2344 596.5938,26.7813 596.5938,26.3906 C596.5938,25.9375 596.2031,25.5469 595.7344,25.5469 C595.5156,25.5469 595.3125,25.625 595.125,25.8125 C594.6719,26.2969 594.6719,26.2969 594.4844,26.3906 C594.0625,26.6563 593.375,26.7813 592.6094,26.7813 C590.5625,26.7813 589.2656,25.6875 589.2656,23.9844 L589.2656,22.8906 C589.2656,21.1094 590.5156,19.7969 592.25,19.7969 C592.8281,19.7969 593.4375,19.9531 593.9063,20.2031 C594.3906,20.4844 594.5625,20.7031 594.6563,21.1094 C594.7188,21.5156 594.75,21.6406 594.8906,21.7656 C595.0313,21.9063 595.2656,22.0156 595.4844,22.0156 C595.75,22.0156 596.0156,21.875 596.1875,21.6563 C596.2969,21.5 596.3281,21.3125 596.3281,20.8906 L596.3281,19.4688 C596.3281,19.0313 596.3125,18.9063 596.2188,18.75 C596.0625,18.4844 595.7813,18.3438 595.4844,18.3438 C595.1875,18.3438 594.9844,18.4375 594.7656,18.75 L594.5938,18.6719 Z " fill="#000000"/><text fill="#000000" font-family="sans-serif" font-size="14" lengthAdjust="spacing" textLength="40" x="610.75" y="27.8467">State</text><line style="stroke:#181818;stroke-width:0.5;" x1="558" x2="673" y1="39" y2="39"/><text fill="#000000" font-family="sans-serif" font-size="14" lengthAdjust="spacing" textLength="85" x="563" y="55.9951">$transitions</text><text fill="#000000" font-family="sans-serif" font-size="14" lengthAdjust="spacing" textLength="48" x="563" y="72.292">$name</text><line style="stroke:#181818;stroke-width:0.5;" x1="558" x2="673" y1="79.5938" y2="79.5938"/><text fill="#000000" font-family="sans-serif" font-size="14" lengthAdjust="spacing" textLength="57" x="563" y="96.5889">create()</text><text fill="#000000" font-family="sans-serif" font-size="14" lengthAdjust="spacing" textLength="104" x="563" y="112.8857">processInput()</text><text fill="#000000" font-family="sans-serif" font-size="14" lengthAdjust="spacing" textLength="59" x="563" y="129.1826">output()</text><text fill="#000000" font-family="sans-serif" font-size="14" lengthAdjust="spacing" textLength="105" x="563" y="145.4795">setTransition()</text><text fill="#000000" font-family="sans-serif" font-size="14" lengthAdjust="spacing" textLength="74" x="563" y="161.7764">setName()</text></g><!--class Transition--><g id="elem_Transition"><rect codeLine="28" fill="#F1F1F1" height="129.4844" id="Transition" rx="2.5" ry="2.5" style="stroke:#181818;stroke-width:0.5;" width="169" x="734" y="23.5"/><ellipse cx="778.25" cy="39.5" fill="#ADD1B2" rx="11" ry="11" style="stroke:#181818;stroke-width:1.0;"/><path d="M780.5938,35.1719 C779.6563,34.7344 779.0625,34.5938 778.1875,34.5938 C775.5625,34.5938 773.5625,36.6719 773.5625,39.3906 L773.5625,40.5156 C773.5625,43.0938 775.6719,44.9844 778.5625,44.9844 C779.7813,44.9844 780.9375,44.6875 781.6875,44.1406 C782.2656,43.7344 782.5938,43.2813 782.5938,42.8906 C782.5938,42.4375 782.2031,42.0469 781.7344,42.0469 C781.5156,42.0469 781.3125,42.125 781.125,42.3125 C780.6719,42.7969 780.6719,42.7969 780.4844,42.8906 C780.0625,43.1563 779.375,43.2813 778.6094,43.2813 C776.5625,43.2813 775.2656,42.1875 775.2656,40.4844 L775.2656,39.3906 C775.2656,37.6094 776.5156,36.2969 778.25,36.2969 C778.8281,36.2969 779.4375,36.4531 779.9063,36.7031 C780.3906,36.9844 780.5625,37.2031 780.6563,37.6094 C780.7188,38.0156 780.75,38.1406 780.8906,38.2656 C781.0313,38.4063 781.2656,38.5156 781.4844,38.5156 C781.75,38.5156 782.0156,38.375 782.1875,38.1563 C782.2969,38 782.3281,37.8125 782.3281,37.3906 L782.3281,35.9688 C782.3281,35.5313 782.3125,35.4063 782.2188,35.25 C782.0625,34.9844 781.7813,34.8438 781.4844,34.8438 C781.1875,34.8438 780.9844,34.9375 780.7656,35.25 L780.5938,35.1719 Z " fill="#000000"/><text fill="#000000" font-family="sans-serif" font-size="14" lengthAdjust="spacing" textLength="72" x="798.75" y="44.3467">Transition</text><line style="stroke:#181818;stroke-width:0.5;" x1="735" x2="902" y1="55.5" y2="55.5"/><text fill="#000000" font-family="sans-serif" font-size="14" lengthAdjust="spacing" textLength="46" x="740" y="72.4951">$input</text><text fill="#000000" font-family="sans-serif" font-size="14" lengthAdjust="spacing" textLength="130" x="740" y="88.792">$destinationState</text><line style="stroke:#181818;stroke-width:0.5;" x1="735" x2="902" y1="96.0938" y2="96.0938"/><text fill="#000000" font-family="sans-serif" font-size="14" lengthAdjust="spacing" textLength="57" x="740" y="113.0889">create()</text><text fill="#000000" font-family="sans-serif" font-size="14" lengthAdjust="spacing" textLength="71" x="740" y="129.3857">setInput()</text><text fill="#000000" font-family="sans-serif" font-size="14" lengthAdjust="spacing" textLength="157" x="740" y="145.6826">setDestinationState()</text></g><!--link StateMachineAPI to StateMachine--><g id="link_StateMachineAPI_StateMachine"><path codeLine="1" d="M192.265,88 C225.807,88 262.961,88 293.714,88 " fill="none" id="StateMachineAPI-StateMachine" style="stroke:#181818;stroke-width:1.0;"/><polygon fill="#000000" points="219.5,76.5664,210.4549,73.6275,210.4549,79.5053,219.5,76.5664" style="stroke:#000000;stroke-width:1.0;"/><text fill="#000000" font-family="sans-serif" font-size="13" lengthAdjust="spacing" textLength="52" x="223.5" y="81.0669">execute</text></g><!--link StateMachine to State--><g id="link_StateMachine_State"><path codeLine="2" d="M425.094,88 C465.685,88 517.362,88 556.634,88 " fill="none" id="StateMachine-State" style="stroke:#181818;stroke-width:1.0;"/><polygon fill="#000000" points="452.5,76.5664,443.4549,73.6275,443.4549,79.5053,452.5,76.5664" style="stroke:#000000;stroke-width:1.0;"/><text fill="#000000" font-family="sans-serif" font-size="13" lengthAdjust="spacing" textLength="82" x="456.5" y="81.0669">processInput</text></g><!--link State to Transition--><g id="link_State_Transition"><path codeLine="3" d="M674.216,88 C692.834,88 713.804,88 733.868,88 " fill="none" id="State-Transition" style="stroke:#181818;stroke-width:1.0;"/><text fill="#000000" font-family="sans-serif" font-size="13" lengthAdjust="spacing" textLength="23" x="692.5" y="81.0669">has</text></g><!--SRC=[RL0n3i8m3DppYWmTOE0334Y8BXr0IEK38LXj94Yhs96G47_7AMaJMgOuv_FTsJKfWgFIhR6mFrTo8-iCaLi9Jz2UGEx4JoFocD2xJWDYPNjF8ulR5wSi6ZATPKwhK1pk2l57FVYzX9G5PY3_jOFqNwqPoJqMG0bNtnZR38tEqyZHtZcmD3WEG5o5w_UVD25AaS-860p5ml-RS2uqAD2qDyyLLZqWeo-4Kbm4IYUBm8cdCvFifC79115-Ru1ah0fup9tyM6JouhgSKOFu1m00]--></g></svg>