<?xml version="1.0" encoding="us-ascii" standalone="no"?><svg xmlns="http://www.w3.org/2000/svg" xmlns:xlink="http://www.w3.org/1999/xlink" contentStyleType="text/css" height="257px" preserveAspectRatio="none" style="width:953px;height:257px;background:#FFFFFF;" version="1.1" viewBox="0 0 953 257" width="953px" zoomAndPan="magnify"><defs/><g><!--class StateMachineAPI--><g id="elem_StateMachineAPI"><rect codeLine="4" fill="#F1F1F1" height="194.6719" id="StateMachineAPI" rx="2.5" ry="2.5" style="stroke:#181818;stroke-width:0.5;" width="154" x="7" y="31.5"/><ellipse cx="22" cy="47.5" fill="#ADD1B2" rx="11" ry="11" style="stroke:#181818;stroke-width:1.0;"/><path d="M24.3438,43.1719 C23.4063,42.7344 22.8125,42.5938 21.9375,42.5938 C19.3125,42.5938 17.3125,44.6719 17.3125,47.3906 L17.3125,48.5156 C17.3125,51.0938 19.4219,52.9844 22.3125,52.9844 C23.5313,52.9844 24.6875,52.6875 25.4375,52.1406 C26.0156,51.7344 26.3438,51.2813 26.3438,50.8906 C26.3438,50.4375 25.9531,50.0469 25.4844,50.0469 C25.2656,50.0469 25.0625,50.125 24.875,50.3125 C24.4219,50.7969 24.4219,50.7969 24.2344,50.8906 C23.8125,51.1563 23.125,51.2813 22.3594,51.2813 C20.3125,51.2813 19.0156,50.1875 19.0156,48.4844 L19.0156,47.3906 C19.0156,45.6094 20.2656,44.2969 22,44.2969 C22.5781,44.2969 23.1875,44.4531 23.6563,44.7031 C24.1406,44.9844 24.3125,45.2031 24.4063,45.6094 C24.4688,46.0156 24.5,46.1406 24.6406,46.2656 C24.7813,46.4063 25.0156,46.5156 25.2344,46.5156 C25.5,46.5156 25.7656,46.375 25.9375,46.1563 C26.0469,46 26.0781,45.8125 26.0781,45.3906 L26.0781,43.9688 C26.0781,43.5313 26.0625,43.4063 25.9688,43.25 C25.8125,42.9844 25.5313,42.8438 25.2344,42.8438 C24.9375,42.8438 24.7344,42.9375 24.5156,43.25 L24.3438,43.1719 Z " fill="#000000"/><text fill="#000000" font-family="sans-serif" font-size="14" lengthAdjust="spacing" textLength="122" x="36" y="52.3467">StateMachineAPI</text><line style="stroke:#181818;stroke-width:0.5;" x1="8" x2="160" y1="63.5" y2="63.5"/><text fill="#000000" font-family="sans-serif" font-size="14" lengthAdjust="spacing" textLength="105" x="13" y="80.4951">$stateMachine</text><line style="stroke:#181818;stroke-width:0.5;" x1="8" x2="160" y1="87.7969" y2="87.7969"/><text fill="#000000" font-family="sans-serif" font-size="14" lengthAdjust="spacing" textLength="116" x="13" y="104.792">createMachine()</text><text fill="#000000" font-family="sans-serif" font-size="14" lengthAdjust="spacing" textLength="103" x="13" y="121.0889">addAlphabet()</text><text fill="#000000" font-family="sans-serif" font-size="14" lengthAdjust="spacing" textLength="76" x="13" y="137.3857">addState()</text><text fill="#000000" font-family="sans-serif" font-size="14" lengthAdjust="spacing" textLength="108" x="13" y="153.6826">addTransition()</text><text fill="#000000" font-family="sans-serif" font-size="14" lengthAdjust="spacing" textLength="85" x="13" y="169.9795">startState()</text><text fill="#000000" font-family="sans-serif" font-size="14" lengthAdjust="spacing" textLength="104" x="13" y="186.2764">processInput()</text><text fill="#000000" font-family="sans-serif" font-size="14" lengthAdjust="spacing" textLength="59" x="13" y="202.5732">output()</text><text fill="#000000" font-family="sans-serif" font-size="14" lengthAdjust="spacing" textLength="89" x="13" y="218.8701">isValidFinal()</text></g><!--class StateMachine--><g id="elem_StateMachine"><rect codeLine="15" fill="#F1F1F1" height="227.2656" id="StateMachine" rx="2.5" ry="2.5" style="stroke:#181818;stroke-width:0.5;" width="166" x="293" y="15.5"/><ellipse cx="323.75" cy="31.5" fill="#ADD1B2" rx="11" ry="11" style="stroke:#181818;stroke-width:1.0;"/><path d="M326.0938,27.1719 C325.1563,26.7344 324.5625,26.5938 323.6875,26.5938 C321.0625,26.5938 319.0625,28.6719 319.0625,31.3906 L319.0625,32.5156 C319.0625,35.0938 321.1719,36.9844 324.0625,36.9844 C325.2813,36.9844 326.4375,36.6875 327.1875,36.1406 C327.7656,35.7344 328.0938,35.2813 328.0938,34.8906 C328.0938,34.4375 327.7031,34.0469 327.2344,34.0469 C327.0156,34.0469 326.8125,34.125 326.625,34.3125 C326.1719,34.7969 326.1719,34.7969 325.9844,34.8906 C325.5625,35.1563 324.875,35.2813 324.1094,35.2813 C322.0625,35.2813 320.7656,34.1875 320.7656,32.4844 L320.7656,31.3906 C320.7656,29.6094 322.0156,28.2969 323.75,28.2969 C324.3281,28.2969 324.9375,28.4531 325.4063,28.7031 C325.8906,28.9844 326.0625,29.2031 326.1563,29.6094 C326.2188,30.0156 326.25,30.1406 326.3906,30.2656 C326.5313,30.4063 326.7656,30.5156 326.9844,30.5156 C327.25,30.5156 327.5156,30.375 327.6875,30.1563 C327.7969,30 327.8281,29.8125 327.8281,29.3906 L327.8281,27.9688 C327.8281,27.5313 327.8125,27.4063 327.7188,27.25 C327.5625,26.9844 327.2813,26.8438 326.9844,26.8438 C326.6875,26.8438 326.4844,26.9375 326.2656,27.25 L326.0938,27.1719 Z " fill="#000000"/><text fill="#000000" font-family="sans-serif" font-size="14" lengthAdjust="spacing" textLength="99" x="341.25" y="36.3467">StateMachine</text><line style="stroke:#181818;stroke-width:0.5;" x1="294" x2="458" y1="47.5" y2="47.5"/><text fill="#000000" font-family="sans-serif" font-size="14" lengthAdjust="spacing" textLength="101" x="299" y="64.4951">$currentState</text><text fill="#000000" font-family="sans-serif" font-size="14" lengthAdjust="spacing" textLength="53" x="299" y="80.792">$states</text><text fill="#000000" font-family="sans-serif" font-size="14" lengthAdjust="spacing" textLength="73" x="299" y="97.0889">$alphabet</text><line style="stroke:#181818;stroke-width:0.5;" x1="294" x2="458" y1="104.3906" y2="104.3906"/><text fill="#000000" font-family="sans-serif" font-size="14" lengthAdjust="spacing" textLength="76" x="299" y="121.3857">addState()</text><text fill="#000000" font-family="sans-serif" font-size="14" lengthAdjust="spacing" textLength="108" x="299" y="137.6826">addTransition()</text><text fill="#000000" font-family="sans-serif" font-size="14" lengthAdjust="spacing" textLength="45" x="299" y="153.9795">start()</text><text fill="#000000" font-family="sans-serif" font-size="14" lengthAdjust="spacing" textLength="104" x="299" y="170.2764">processInput()</text><text fill="#000000" font-family="sans-serif" font-size="14" lengthAdjust="spacing" textLength="144" x="299" y="186.5732">currentStateName()</text><text fill="#000000" font-family="sans-serif" font-size="14" lengthAdjust="spacing" textLength="154" x="299" y="202.8701">currentStateOutput()</text><text fill="#000000" font-family="sans-serif" font-size="14" lengthAdjust="spacing" textLength="89" x="299" y="219.167">isValidFinal()</text><text fill="#000000" font-family="sans-serif" font-size="14" lengthAdjust="spacing" textLength="55" x="299" y="235.4639">states()</text></g><!--class State--><g id="elem_State"><rect codeLine="28" fill="#F1F1F1" height="243.5625" id="State" rx="2.5" ry="2.5" style="stroke:#181818;stroke-width:0.5;" width="127" x="590.5" y="7"/><ellipse cx="630.25" cy="23" fill="#ADD1B2" rx="11" ry="11" style="stroke:#181818;stroke-width:1.0;"/><path d="M632.5938,18.6719 C631.6563,18.2344 631.0625,18.0938 630.1875,18.0938 C627.5625,18.0938 625.5625,20.1719 625.5625,22.8906 L625.5625,24.0156 C625.5625,26.5938 627.6719,28.4844 630.5625,28.4844 C631.7813,28.4844 632.9375,28.1875 633.6875,27.6406 C634.2656,27.2344 634.5938,26.7813 634.5938,26.3906 C634.5938,25.9375 634.2031,25.5469 633.7344,25.5469 C633.5156,25.5469 633.3125,25.625 633.125,25.8125 C632.6719,26.2969 632.6719,26.2969 632.4844,26.3906 C632.0625,26.6563 631.375,26.7813 630.6094,26.7813 C628.5625,26.7813 627.2656,25.6875 627.2656,23.9844 L627.2656,22.8906 C627.2656,21.1094 628.5156,19.7969 630.25,19.7969 C630.8281,19.7969 631.4375,19.9531 631.9063,20.2031 C632.3906,20.4844 632.5625,20.7031 632.6563,21.1094 C632.7188,21.5156 632.75,21.6406 632.8906,21.7656 C633.0313,21.9063 633.2656,22.0156 633.4844,22.0156 C633.75,22.0156 634.0156,21.875 634.1875,21.6563 C634.2969,21.5 634.3281,21.3125 634.3281,20.8906 L634.3281,19.4688 C634.3281,19.0313 634.3125,18.9063 634.2188,18.75 C634.0625,18.4844 633.7813,18.3438 633.4844,18.3438 C633.1875,18.3438 632.9844,18.4375 632.7656,18.75 L632.5938,18.6719 Z " fill="#000000"/><text fill="#000000" font-family="sans-serif" font-size="14" lengthAdjust="spacing" textLength="40" x="649.75" y="27.8467">State</text><line style="stroke:#181818;stroke-width:0.5;" x1="591.5" x2="716.5" y1="39" y2="39"/><text fill="#000000" font-family="sans-serif" font-size="14" lengthAdjust="spacing" textLength="85" x="596.5" y="55.9951">$transitions</text><text fill="#000000" font-family="sans-serif" font-size="14" lengthAdjust="spacing" textLength="48" x="596.5" y="72.292">$name</text><text fill="#000000" font-family="sans-serif" font-size="14" lengthAdjust="spacing" textLength="57" x="596.5" y="88.5889">$output</text><text fill="#000000" font-family="sans-serif" font-size="14" lengthAdjust="spacing" textLength="79" x="596.5" y="104.8857">isValidFinal</text><line style="stroke:#181818;stroke-width:0.5;" x1="591.5" x2="716.5" y1="112.1875" y2="112.1875"/><text fill="#000000" font-family="sans-serif" font-size="14" lengthAdjust="spacing" textLength="57" x="596.5" y="129.1826">create()</text><text fill="#000000" font-family="sans-serif" font-size="14" lengthAdjust="spacing" textLength="115" x="596.5" y="145.4795">addTransitions()</text><text fill="#000000" font-family="sans-serif" font-size="14" lengthAdjust="spacing" textLength="108" x="596.5" y="161.7764">addTransition()</text><text fill="#000000" font-family="sans-serif" font-size="14" lengthAdjust="spacing" textLength="104" x="596.5" y="178.0732">processInput()</text><text fill="#000000" font-family="sans-serif" font-size="14" lengthAdjust="spacing" textLength="59" x="596.5" y="194.3701">output()</text><text fill="#000000" font-family="sans-serif" font-size="14" lengthAdjust="spacing" textLength="50" x="596.5" y="210.667">name()</text><text fill="#000000" font-family="sans-serif" font-size="14" lengthAdjust="spacing" textLength="89" x="596.5" y="226.9639">isValidFinal()</text><text fill="#000000" font-family="sans-serif" font-size="14" lengthAdjust="spacing" textLength="87" x="596.5" y="243.2607">transitions()</text></g><!--class Transition--><g id="elem_Transition"><rect codeLine="42" fill="#F1F1F1" height="129.4844" id="Transition" rx="2.5" ry="2.5" style="stroke:#181818;stroke-width:0.5;" width="142" x="804" y="64.5"/><ellipse cx="836.1" cy="80.5" fill="#ADD1B2" rx="11" ry="11" style="stroke:#181818;stroke-width:1.0;"/><path d="M838.4438,76.1719 C837.5063,75.7344 836.9125,75.5938 836.0375,75.5938 C833.4125,75.5938 831.4125,77.6719 831.4125,80.3906 L831.4125,81.5156 C831.4125,84.0938 833.5219,85.9844 836.4125,85.9844 C837.6313,85.9844 838.7875,85.6875 839.5375,85.1406 C840.1156,84.7344 840.4438,84.2813 840.4438,83.8906 C840.4438,83.4375 840.0531,83.0469 839.5844,83.0469 C839.3656,83.0469 839.1625,83.125 838.975,83.3125 C838.5219,83.7969 838.5219,83.7969 838.3344,83.8906 C837.9125,84.1563 837.225,84.2813 836.4594,84.2813 C834.4125,84.2813 833.1156,83.1875 833.1156,81.4844 L833.1156,80.3906 C833.1156,78.6094 834.3656,77.2969 836.1,77.2969 C836.6781,77.2969 837.2875,77.4531 837.7563,77.7031 C838.2406,77.9844 838.4125,78.2031 838.5063,78.6094 C838.5688,79.0156 838.6,79.1406 838.7406,79.2656 C838.8813,79.4063 839.1156,79.5156 839.3344,79.5156 C839.6,79.5156 839.8656,79.375 840.0375,79.1563 C840.1469,79 840.1781,78.8125 840.1781,78.3906 L840.1781,76.9688 C840.1781,76.5313 840.1625,76.4063 840.0688,76.25 C839.9125,75.9844 839.6313,75.8438 839.3344,75.8438 C839.0375,75.8438 838.8344,75.9375 838.6156,76.25 L838.4438,76.1719 Z " fill="#000000"/><text fill="#000000" font-family="sans-serif" font-size="14" lengthAdjust="spacing" textLength="72" x="853.9" y="85.3467">Transition</text><line style="stroke:#181818;stroke-width:0.5;" x1="805" x2="945" y1="96.5" y2="96.5"/><text fill="#000000" font-family="sans-serif" font-size="14" lengthAdjust="spacing" textLength="46" x="810" y="113.4951">$input</text><text fill="#000000" font-family="sans-serif" font-size="14" lengthAdjust="spacing" textLength="130" x="810" y="129.792">$destinationState</text><text fill="#000000" font-family="sans-serif" font-size="14" lengthAdjust="spacing" textLength="55" x="810" y="146.0889">$source</text><line style="stroke:#181818;stroke-width:0.5;" x1="805" x2="945" y1="153.3906" y2="153.3906"/><text fill="#000000" font-family="sans-serif" font-size="14" lengthAdjust="spacing" textLength="57" x="810" y="170.3857">create()</text><text fill="#000000" font-family="sans-serif" font-size="14" lengthAdjust="spacing" textLength="71" x="810" y="186.6826">setInput()</text></g><!--link StateMachineAPI to StateMachine--><g id="link_StateMachineAPI_StateMachine"><path codeLine="1" d="M161.102,129 C201.654,129 251.407,129 292.825,129 " fill="none" id="StateMachineAPI-StateMachine" style="stroke:#181818;stroke-width:1.0;"/><polygon fill="#000000" points="188.5,117.5664,179.4549,114.6275,179.4549,120.5053,188.5,117.5664" style="stroke:#000000;stroke-width:1.0;"/><text fill="#000000" font-family="sans-serif" font-size="13" lengthAdjust="spacing" textLength="82" x="192.5" y="122.0669">processInput</text></g><!--link StateMachine to State--><g id="link_StateMachine_State"><path codeLine="2" d="M459.033,129 C501.111,129 551.404,129 590.37,129 " fill="none" id="StateMachine-State" style="stroke:#181818;stroke-width:1.0;"/><polygon fill="#000000" points="486.25,117.5664,477.2049,114.6275,477.2049,120.5053,486.25,117.5664" style="stroke:#000000;stroke-width:1.0;"/><text fill="#000000" font-family="sans-serif" font-size="13" lengthAdjust="spacing" textLength="82" x="490.25" y="122.0669">processInput</text></g><!--link State to Transition--><g id="link_State_Transition"><path codeLine="3" d="M717.626,129 C744.532,129 775.989,129 803.676,129 " fill="none" id="State-Transition" style="stroke:#181818;stroke-width:1.0;"/><text fill="#000000" font-family="sans-serif" font-size="13" lengthAdjust="spacing" textLength="50" x="735.75" y="122.0669">process</text></g><!--SRC=[TPBBQiGm34Nt_WelicWN_O4k2aEXC8i-O4htgYCOG-e4IrcL-VVAZXq_PhgATAtSUonyOc1y1NEs3WyVH_sWJvMY7_NYPuD4HxUih9zKSvg6_vcIuqyFZYpRsPKPzJm1KHCJWd-LrWDLelJ6O-dlxaM1SJnConc-aNCVZN9J0gCYVfxBG4qPXNdbN5hwWicEBzR19CBb1cPW7CpgFRhDL2LYaW8IbcgOhf0YKIXwbjht3Nwmrzvtr8vKRmWzSuJbFJiWEh6LptRfraUbNLynqyrRzF1bZowXzv3SE6RIwdq4NEiYs30YiVmOz7tFy-eDrfY4dFClVm00]--></g></svg>